<svg width="512" height="512" viewBox="0 0 512 512" fill="none" xmlns="http://www.w3.org/2000/svg">
  <defs>
    <linearGradient id="bgGradient" x1="256" y1="0" x2="256" y2="512" gradientUnits="userSpaceOnUse">
      <!-- Recording Red Gradient -->
      <stop offset="0%" stop-color="#f87171" /> 
      <stop offset="100%" stop-color="#ef4444" />
    </linearGradient>
    <mask id="micMask">
      <rect x="0" y="0" width="512" height="512" fill="white" />
      <rect x="300" y="195" width="90" height="30" rx="15" fill="black" />
      <rect x="300" y="260" width="90" height="30" rx="15" fill="black" />
      <rect x="300" y="325" width="90" height="30" rx="15" fill="black" />
    </mask>
  </defs>
  
  <circle cx="256" cy="256" r="256" fill="url(#bgGradient)" />
  
  <g transform="translate(128, 100) scale(0.5)">
    <!-- Microphone Head -->
    <rect x="128" y="50" width="256" height="420" rx="128" fill="white" mask="url(#micMask)" />
    
    <!-- Rounded Thick Stand -->
    <path d="M480 320V352C480 463.3 398.9 555.5 293 574.4V640H384C401.7 640 416 654.3 416 672V672C416 689.7 401.7 704 384 704H128C110.3 704 96 689.7 96 672V672C96 654.3 110.3 640 128 640H219V574.4C113.1 555.5 32 463.3 32 352V320C32 302.3 46.3 288 64 288C81.7 288 96 302.3 96 320V352C96 440.4 167.6 512 256 512C344.4 512 416 440.4 416 352V320C416 302.3 430.3 288 448 288C465.7 288 480 302.3 480 320Z" fill="white" />
  </g>
</svg>
